<svg width="20" height="20" viewBox="0 0 20 20" fill="none" xmlns="http://www.w3.org/2000/svg">
<path d="M7.26476 0H1.52269C0.683028 0 0 0.683028 0 1.52269V7.26476C0 8.10442 0.683028 8.78744 1.52269 8.78744H7.26476C8.10442 8.78744 8.78744 8.10442 8.78744 7.26476V1.52269C8.78731 0.683028 8.10442 0 7.26476 0Z" fill="#EF233C"/>
<path d="M18.4772 0H12.7351C11.8954 0 11.2124 0.683028 11.2124 1.52269V7.26476C11.2124 8.10442 11.8954 8.78744 12.7351 8.78744H18.4772C19.3168 8.78744 19.9999 8.10442 19.9999 7.26476V1.52269C19.9999 0.683028 19.3168 0 18.4772 0Z" fill="#EF233C"/>
<path d="M7.26476 11.2125H1.52269C0.683028 11.2125 0 11.8955 0 12.7351V18.4772C0 19.3169 0.683028 19.9999 1.52269 19.9999H7.26476C8.10442 19.9999 8.78744 19.3169 8.78744 18.4772V12.7351C8.78731 11.8955 8.10442 11.2125 7.26476 11.2125Z" fill="#EF233C"/>
<path d="M18.4772 11.2125H12.7351C11.8954 11.2125 11.2124 11.8956 11.2124 12.7352V18.4773C11.2124 19.3169 11.8954 20 12.7351 20H18.4772C19.3168 19.9999 19.9999 19.3169 19.9999 18.4772V12.7351C19.9999 11.8955 19.3168 11.2125 18.4772 11.2125Z" fill="#EF233C"/>
</svg>
